<?xml version="1.0" standalone="no"?>
<!DOCTYPE svg PUBLIC "-//W3C//DTD SVG 20010904//EN"
 "http://www.w3.org/TR/2001/REC-SVG-20010904/DTD/svg10.dtd">
<svg version="1.0" xmlns="http://www.w3.org/2000/svg"
 width="500.000000pt" height="441.000000pt" viewBox="0 0 500.000000 441.000000"
 preserveAspectRatio="xMidYMid meet">

<g transform="translate(0.000000,441.000000) scale(0.100000,-0.100000)"
fill="#000000" stroke="none">
<path d="M2197 3940 c-4 -157 -10 -305 -15 -330 l-8 -45 -26 41 c-40 62 -109
203 -183 374 -65 152 -92 202 -81 150 10 -46 36 -374 38 -487 2 -61 7 -105 11
-97 8 14 -6 284 -24 442 -10 93 -8 125 6 80 15 -45 155 -348 197 -425 58 -104
133 -183 176 -183 18 0 42 9 57 23 37 32 91 164 121 297 37 163 40 168 48 70
15 -184 57 -313 110 -338 39 -19 88 9 153 89 45 55 51 67 45 94 -4 16 -7 89
-7 162 0 72 -3 129 -7 126 -5 -2 -8 -11 -8 -18 0 -58 -156 -435 -180 -435 -39
0 -83 165 -105 393 -4 38 -8 67 -10 65 -2 -2 -13 -45 -24 -97 -30 -137 -62
-251 -71 -251 -11 0 -70 160 -135 365 -31 99 -60 189 -64 200 -5 11 -11 -108
-14 -265z"/>
<path d="M3037 4042 c-42 -76 -106 -187 -142 -247 -35 -59 -63 -110 -61 -112
6 -6 76 109 176 290 51 92 94 166 96 165 1 -2 -4 -36 -12 -77 -21 -110 -44
-307 -44 -376 0 -244 131 -230 412 43 l67 66 -40 -104 c-48 -122 -60 -206 -35
-245 9 -14 24 -25 33 -25 25 0 4 -16 -39 -29 -28 -9 -37 -18 -40 -38 -2 -15
-9 -28 -16 -31 -10 -3 -13 8 -11 44 2 38 0 49 -12 47 -26 -4 -454 -94 -471
-99 -11 -3 -18 -15 -18 -30 0 -17 -8 -28 -27 -37 -16 -6 -31 -16 -35 -22 -4
-5 -8 -7 -10 -5 -2 3 -14 17 -27 32 l-23 27 62 111 c34 61 60 114 57 116 -2 3
-32 -45 -66 -106 -34 -60 -63 -110 -65 -110 -2 0 -21 8 -42 17 -27 11 -66 16
-126 16 l-88 -1 -6 50 c-8 58 -13 56 -28 -13 l-12 -52 -61 -18 c-53 -17 -61
-23 -66 -48 -3 -16 -13 -31 -22 -35 -14 -5 -16 -1 -10 27 4 17 9 41 12 51 5
18 1 19 -70 13 l-75 -7 -53 120 c-28 66 -55 120 -58 120 -4 0 -1 -57 7 -127
16 -164 14 -186 -18 -193 -22 -5 -26 -15 -46 -110 -12 -58 -22 -107 -23 -110
-1 -2 -6 1 -13 8 -7 7 -17 12 -23 12 -5 -1 0 -9 12 -19 l23 -19 -29 -142 c-28
-138 -37 -160 -72 -160 -13 0 -11 23 18 168 19 92 37 181 40 197 3 17 15 83
27 148 20 104 21 117 7 116 -9 0 -68 -10 -131 -23 l-115 -23 -3 -31 c-3 -25
-9 -32 -32 -37 -25 -6 -30 -12 -36 -51 l-6 -45 -33 68 c-28 56 -33 75 -28 114
7 58 -22 175 -74 295 l-40 91 136 -137 c173 -176 246 -214 298 -157 32 34 57
149 35 159 -14 6 -106 122 -166 211 -33 48 -61 86 -62 84 -1 -1 13 -53 32
-116 55 -182 75 -331 45 -331 -19 0 -164 136 -250 234 -52 58 -95 105 -97 103
-2 -2 16 -48 40 -103 47 -107 81 -203 74 -210 -7 -7 -153 97 -330 236 -92 71
-169 130 -172 130 -2 0 22 -40 55 -89 82 -125 189 -313 183 -323 -3 -4 -23 -8
-45 -8 -43 0 -99 -25 -147 -65 l-30 -25 -48 67 c-27 38 -77 103 -111 146 -35
43 -63 80 -63 83 0 3 19 -8 43 -24 95 -64 298 -184 303 -179 3 3 -9 13 -27 23
-19 9 -105 61 -193 116 -87 54 -160 97 -162 96 -1 -2 38 -55 88 -118 50 -63
106 -138 125 -167 l35 -52 -26 -34 -27 -35 -101 39 c-55 22 -106 42 -112 45
-6 3 14 -19 44 -48 30 -30 66 -66 79 -81 l24 -27 -28 -52 c-15 -29 -29 -54
-31 -56 -1 -2 -63 13 -138 32 -75 20 -139 36 -142 36 -4 0 15 -17 42 -37 77
-57 174 -144 174 -154 0 -11 -105 -6 -349 17 -84 8 -156 13 -158 11 -2 -3 27
-23 64 -47 83 -51 233 -162 233 -172 0 -5 -51 -9 -112 -9 -62 -1 -162 -4 -223
-8 l-110 -6 111 -58 c142 -73 287 -169 273 -181 -8 -6 -135 -35 -184 -41 -82
-11 -83 -15 -15 -39 79 -28 170 -73 170 -85 0 -12 -100 -55 -200 -85 -47 -15
-92 -29 -100 -32 -8 -4 20 -16 65 -29 91 -25 180 -61 195 -79 12 -15 -104 -86
-254 -156 -52 -25 -95 -47 -96 -50 0 -3 50 -13 112 -23 62 -10 118 -22 126
-26 8 -5 -32 -37 -123 -96 -149 -99 -151 -103 -35 -104 143 -2 357 -37 395
-65 15 -10 8 -19 -52 -68 -37 -31 -79 -66 -93 -78 l-25 -20 25 5 c34 8 174 23
178 19 9 -7 -29 -57 -102 -133 -72 -75 -78 -83 -51 -77 181 44 330 58 365 36
13 -8 12 -15 -8 -53 -24 -45 -137 -193 -197 -258 -19 -21 -35 -40 -35 -43 0
-2 50 16 111 40 61 25 113 43 115 41 2 -2 -32 -58 -76 -125 -43 -67 -76 -122
-72 -122 4 0 75 37 157 81 168 90 320 161 380 178 49 13 95 14 95 1 0 -23 -44
-122 -90 -204 -27 -49 -50 -91 -50 -93 0 -2 36 26 80 62 44 36 83 65 85 65 5
0 -30 -97 -64 -173 -12 -27 -21 -51 -21 -54 0 -3 44 36 97 88 124 120 194 176
261 206 78 37 86 30 79 -70 -6 -98 -24 -188 -77 -379 -21 -78 -38 -144 -36
-145 1 -2 34 43 72 98 47 69 70 95 72 83 1 -11 -6 -66 -17 -124 -17 -93 -19
-123 -8 -109 2 2 34 60 72 129 159 292 273 464 341 517 l36 27 18 -25 c32 -42
43 -108 49 -294 l6 -180 30 95 c33 104 37 103 51 -25 l7 -60 31 140 c52 226
98 348 138 361 48 15 117 -76 184 -247 47 -118 154 -449 154 -474 0 -8 3 -15
8 -15 4 0 6 64 4 142 -2 90 0 139 6 133 6 -5 27 -49 47 -98 37 -85 61 -122 50
-75 -9 42 -35 325 -41 465 -8 162 2 213 42 232 22 10 33 8 70 -9 65 -32 196
-182 304 -349 19 -28 35 -49 37 -48 2 2 -6 29 -16 60 -11 30 -29 89 -40 129
l-20 73 65 -70 64 -70 -36 85 c-50 118 -94 241 -94 266 0 44 61 45 147 5 95
-45 252 -156 486 -343 53 -43 97 -75 97 -72 0 3 -21 38 -47 77 -59 92 -153
246 -153 252 0 3 37 -18 83 -47 126 -79 153 -94 141 -78 -6 8 -52 67 -101 130
-91 115 -193 265 -193 282 0 18 56 30 115 23 68 -7 211 -51 329 -101 44 -19
82 -34 85 -34 3 0 -36 42 -85 93 -93 94 -140 154 -131 163 3 3 46 -6 96 -19
50 -14 91 -21 91 -17 0 5 -4 10 -9 12 -16 6 -161 122 -161 129 0 4 23 13 52
20 60 14 324 7 521 -14 64 -7 117 -10 117 -7 0 3 -22 17 -48 32 -87 49 -282
196 -282 212 0 3 57 7 128 8 l127 3 -120 63 c-67 35 -132 72 -145 82 -25 19
-25 19 -5 34 35 26 130 57 246 80 62 12 109 25 104 28 -6 3 -28 11 -50 18 -50
16 -163 73 -191 97 -12 10 -29 30 -39 45 -14 23 -15 29 -4 33 8 2 48 15 89 28
l75 23 -55 13 c-30 8 -61 17 -69 21 -22 11 104 95 273 182 l150 76 -39 7
c-100 16 -295 56 -344 71 l-55 16 25 19 c13 10 65 45 116 76 51 32 92 61 93
64 0 3 -57 9 -127 13 -71 4 -143 10 -161 14 l-34 7 69 65 c37 36 84 77 103 92
l35 28 -60 -8 c-102 -12 -307 -9 -333 6 -30 17 -21 32 75 133 42 43 70 79 63
79 -7 0 -39 -7 -72 -16 -94 -24 -97 -19 -40 66 28 41 85 114 126 163 42 48 73
87 68 87 -4 0 -66 -24 -138 -53 -71 -30 -169 -69 -218 -87 l-88 -32 -29 35
c-41 50 -105 72 -206 72 -45 0 -79 3 -75 6 4 3 36 18 72 32 36 15 132 63 214
107 82 44 151 80 153 80 3 0 -11 -21 -30 -47 -50 -69 -140 -223 -134 -229 2
-3 21 23 40 58 20 35 63 103 96 153 33 49 59 90 57 92 -1 1 -87 -43 -190 -98
-103 -56 -190 -99 -192 -96 -6 6 46 111 82 169 13 21 22 38 19 38 -3 0 -47
-33 -98 -73 -145 -116 -275 -195 -297 -182 -28 17 0 144 65 295 19 44 31 80
27 80 -4 0 -50 -44 -104 -97 -54 -53 -100 -95 -102 -92 -8 8 30 182 73 334 22
77 38 141 37 142 -1 1 -50 -66 -109 -150 -136 -194 -260 -353 -272 -349 -24 6
-3 276 39 495 7 37 10 67 6 67 -3 0 -41 -62 -83 -138z m-939 -659 c36 -83 38
-93 22 -93 -10 0 -25 -3 -33 -6 -12 -4 -16 8 -21 58 -4 35 -9 81 -13 103 -3
22 -3 38 0 35 3 -3 23 -47 45 -97z m382 -53 c0 -11 -4 -20 -10 -20 -5 0 -10 9
-10 20 0 11 5 20 10 20 6 0 10 -9 10 -20z m1780 -200 c-77 -80 -112 -139 -114
-192 -1 -34 4 -45 32 -68 53 -44 187 -74 401 -88 l103 -7 -133 -89 c-335 -226
-353 -330 -71 -422 l95 -31 -74 -23 c-178 -53 -279 -120 -279 -185 0 -70 109
-163 310 -266 l85 -44 -215 -7 c-218 -8 -356 -25 -406 -49 -15 -8 -36 -26 -47
-41 -20 -26 -20 -26 2 -71 21 -42 101 -127 186 -194 l40 -32 -62 19 c-109 34
-282 62 -349 58 -80 -5 -104 -24 -104 -84 0 -74 110 -256 267 -442 25 -28 43
-52 40 -52 -2 0 -87 50 -188 111 -217 131 -358 203 -435 220 -50 11 -57 11
-82 -8 -22 -17 -28 -29 -30 -73 -4 -61 30 -182 83 -296 l32 -71 -136 137
c-145 147 -197 183 -259 178 -33 -3 -40 -8 -62 -53 -24 -48 -25 -56 -23 -230
0 -99 8 -243 17 -320 8 -76 14 -141 12 -142 -2 -2 -16 27 -31 64 -15 38 -70
154 -120 258 -74 151 -104 202 -147 247 -67 73 -94 80 -140 39 -48 -42 -84
-129 -128 -303 l-36 -148 -13 103 c-37 310 -104 392 -223 273 -58 -58 -137
-178 -258 -392 -100 -178 -117 -205 -107 -169 18 59 47 320 47 414 0 126 -11
166 -51 187 -38 19 -79 8 -151 -39 -57 -38 -209 -171 -245 -215 -30 -35 -29
-29 8 59 39 95 62 195 54 236 -21 114 -175 74 -582 -152 -46 -25 -83 -43 -83
-41 0 2 24 40 54 83 89 131 156 273 156 334 0 18 -11 41 -29 61 -27 30 -34 33
-103 36 -64 3 -206 -15 -273 -35 -11 -3 8 24 49 68 102 110 129 181 90 237
-40 58 -209 97 -442 103 -39 1 -72 5 -72 8 1 3 53 40 118 81 137 88 266 208
277 258 15 71 -58 134 -202 174 -46 13 -83 26 -83 29 0 3 22 11 50 17 166 38
300 123 300 190 0 68 -102 156 -303 261 l-97 51 82 0 c198 1 465 24 515 45
l33 14 10 -38 c15 -57 51 -104 87 -114 25 -7 54 -3 137 23 72 21 116 30 134
25 38 -9 92 -44 92 -59 0 -34 -189 -50 -244 -21 -35 19 -33 19 -40 -8 -3 -15
-13 -23 -28 -23 -13 0 -50 -1 -83 -2 l-60 -3 40 -24 c22 -13 46 -28 54 -32 11
-7 10 -22 -8 -87 -12 -43 -29 -92 -37 -108 -20 -38 -13 -43 71 -60 l60 -12
-67 -21 c-37 -12 -70 -23 -72 -26 -3 -3 27 -15 67 -26 198 -59 195 -128 -13
-269 -55 -37 -98 -69 -96 -72 7 -6 178 113 219 153 90 88 66 142 -82 192 -36
12 -59 24 -51 26 8 3 42 14 75 25 33 11 88 23 123 27 l63 6 -6 -143 c-13 -326
-16 -350 -34 -343 -39 17 -83 25 -186 35 -60 6 -117 13 -127 16 -9 3 -19 0
-22 -5 -4 -5 22 -12 61 -15 123 -11 231 -26 262 -37 29 -10 31 -14 31 -59 0
-67 -13 -97 -68 -154 -32 -32 -41 -46 -27 -43 11 3 36 9 55 12 l35 6 0 -123 0
-123 35 -17 c19 -10 39 -19 44 -21 6 -2 0 -18 -13 -36 -13 -18 -21 -34 -18
-37 2 -3 27 8 55 25 49 29 52 29 97 15 54 -16 65 -13 58 17 -5 19 -3 21 26 14
30 -6 31 -6 31 29 0 19 5 38 10 41 6 4 10 -20 10 -65 0 -65 2 -71 18 -64 27
12 147 42 151 38 2 -2 -8 -33 -23 -69 -14 -36 -26 -68 -26 -71 0 -3 41 33 92
80 51 47 96 86 100 86 4 0 8 -13 8 -30 0 -16 1 -30 3 -30 1 0 31 9 67 20 36
11 67 20 69 20 8 0 -9 -208 -24 -293 -9 -49 -14 -94 -12 -100 2 -6 32 41 67
104 142 255 224 365 266 357 32 -5 62 -85 80 -208 9 -63 17 -116 19 -118 2 -2
11 32 20 75 26 118 63 227 86 257 58 73 120 2 249 -285 37 -83 71 -153 75
-157 4 -4 5 18 2 48 -18 159 -28 342 -22 398 6 61 18 82 55 102 27 14 118 -56
210 -163 41 -47 78 -86 81 -86 4 -1 -13 48 -37 108 -49 119 -65 201 -44 226
11 13 18 7 51 -39 22 -30 47 -57 57 -60 10 -4 58 -7 107 -7 l88 -2 110 -69
c60 -38 111 -67 113 -65 2 2 -25 40 -61 84 l-64 82 43 25 c43 25 176 158 176
176 0 6 12 8 28 5 26 -6 26 -6 7 9 -19 16 -19 17 -1 64 10 26 26 77 35 114 9
37 19 69 21 72 3 2 63 6 133 7 70 1 127 6 127 10 0 5 -28 23 -62 40 -35 17
-89 47 -120 67 l-58 37 0 73 0 73 47 20 c26 11 73 27 105 36 32 9 58 20 58 23
0 4 -21 13 -47 19 -73 18 -150 57 -163 81 -25 48 24 106 175 206 47 32 83 59
81 61 -2 3 -22 -7 -42 -21 -41 -28 -49 -26 -59 16 -7 26 -5 28 21 23 76 -11
104 -13 109 -6 2 5 -27 11 -66 14 -39 3 -72 7 -74 9 -1 2 -22 72 -47 156 l-45
153 47 42 c63 57 117 130 131 177 12 39 12 39 54 33 40 -5 236 20 279 37 11 4
22 7 24 5 1 -1 -25 -31 -58 -65z m-617 8 c27 -36 17 -73 -24 -87 -18 -6 -34
-11 -36 -11 -5 0 6 84 14 113 6 23 21 18 46 -15z m-321 -38 c-5 -34 -29 -50
-99 -69 -31 -9 -49 -9 -63 -1 -35 19 -22 28 53 37 66 7 72 10 76 33 3 25 19
42 31 35 4 -2 5 -18 2 -35z m-140 -90 c13 1 47 9 76 19 l52 18 -1 -26 c-1 -42
-16 -119 -18 -90 0 14 -3 28 -6 30 -2 3 -53 -1 -112 -8 -58 -7 -108 -11 -110
-9 -2 2 2 26 8 54 14 59 33 69 66 35 12 -13 32 -23 45 -23z m-2421 -7 l96 -25
-13 -37 c-7 -20 -15 -44 -18 -55 -6 -16 -14 -11 -64 35 -31 30 -75 69 -97 87
-22 19 -31 31 -20 27 11 -4 63 -18 116 -32z m852 -10 c-8 -52 -11 -55 -32 -41
-11 6 -21 22 -24 35 -3 17 2 24 22 31 34 12 39 8 34 -25z m927 -3 c18 -34 12
-66 -15 -78 -38 -17 -57 -15 -52 6 3 9 8 38 12 65 6 42 8 46 25 37 11 -6 24
-19 30 -30z m-968 -46 c27 -14 30 -19 24 -52 -3 -21 -8 -63 -12 -95 -7 -59
-24 -89 -24 -42 0 38 -16 64 -71 117 -27 26 -49 51 -49 56 0 8 57 28 88 31 7
0 27 -6 44 -15z m-253 -33 c14 -8 30 -7 61 4 39 14 44 14 56 -2 12 -17 3 -18
-139 -25 -84 -5 -158 -6 -164 -3 -21 7 -15 33 10 39 34 7 154 -1 176 -13z
m1411 -256 c-17 -105 -30 -193 -30 -196 0 -4 -38 -19 -85 -33 -46 -15 -105
-35 -129 -46 -40 -17 -45 -22 -48 -56 -5 -62 -28 -55 -28 9 0 33 -5 57 -11 59
-9 3 -9 22 0 73 25 149 32 175 48 175 39 0 162 73 233 139 41 38 76 68 77 67
1 -1 -11 -87 -27 -191z m538 68 c-5 -31 -10 -58 -11 -59 -5 -5 -240 -35 -244
-31 -2 3 -1 16 2 30 6 23 15 27 100 43 88 16 94 19 97 43 2 17 11 27 28 32 14
3 28 4 31 3 3 -2 2 -29 -3 -61z m276 -185 c10 -29 21 -59 24 -66 3 -10 -8 -7
-35 7 l-40 20 10 46 c6 25 13 45 16 45 4 0 15 -24 25 -52z m-1997 8 c-9 -24
-50 -306 -45 -312 3 -2 128 38 279 89 232 80 274 97 277 115 3 18 58 49 69 38
4 -4 -25 -167 -31 -173 -1 -2 -45 -16 -97 -31 l-94 -28 -3 -42 c-3 -39 -5 -42
-40 -48 -29 -6 -46 -2 -87 21 -97 54 -146 75 -156 70 -5 -4 -9 -20 -9 -36 0
-27 -2 -29 -21 -19 -11 7 -23 9 -27 6 -3 -4 -9 -66 -14 -138 -4 -73 -10 -138
-12 -145 -3 -7 -15 -13 -26 -13 -19 0 -20 6 -20 219 l0 219 -35 6 -36 7 31 39
c16 21 44 68 61 104 17 36 33 66 36 66 3 0 3 -6 0 -14z m2313 -66 c-24 -19
-40 -25 -40 -15 0 5 51 34 60 34 3 0 -6 -8 -20 -19z m-2880 -4 c0 -2 -3 -11
-6 -20 -5 -12 -10 -13 -25 -5 -11 5 -24 7 -29 4 -5 -3 -22 1 -37 9 -27 15 -27
15 35 16 34 0 62 -2 62 -4z m2543 -10 c39 -16 108 -90 135 -143 28 -55 40 -98
52 -180 18 -134 -21 -395 -81 -538 -74 -176 -267 -303 -421 -279 -34 6 -45 15
-84 70 -83 117 -124 235 -124 357 0 129 66 336 151 479 51 87 157 200 212 227
48 24 113 27 160 7z m-577 -52 c67 -50 90 -119 73 -219 -16 -87 -55 -162 -120
-227 l-57 -58 77 -195 78 -195 -51 -32 c-28 -17 -68 -42 -89 -55 -22 -14 -40
-23 -42 -21 -1 2 -40 77 -85 168 -45 91 -84 167 -86 169 -9 10 -15 -15 -44
-189 -16 -101 -33 -187 -38 -191 -4 -4 -42 -20 -84 -37 l-77 -29 5 66 c3 36
16 270 29 520 13 250 28 457 32 462 13 12 112 49 188 70 98 26 252 23 291 -7z
m795 -39 c-38 -43 -39 -64 -6 -104 26 -30 116 -71 157 -71 12 0 19 -3 15 -6
-5 -5 -81 -34 -158 -60 -13 -4 -19 7 -28 57 -7 34 -24 87 -37 118 -14 31 -21
57 -16 59 5 1 29 13 53 25 24 13 46 22 48 20 2 -1 -10 -18 -28 -38z m-2382
-30 c51 -8 98 -18 102 -21 5 -3 9 -99 9 -213 0 -237 0 -238 72 -228 66 9 66 8
84 259 l6 86 36 -17 c20 -9 57 -28 82 -43 25 -15 57 -30 72 -33 l27 -7 -5 -91
c-3 -51 -12 -166 -21 -257 -9 -91 -19 -253 -22 -360 l-6 -195 -95 -20 c-52
-12 -110 -26 -127 -32 l-33 -12 0 158 c0 169 -1 173 -52 185 -18 4 -32 1 -43
-10 -14 -14 -16 -38 -13 -165 2 -82 1 -149 -2 -149 -19 0 -196 53 -221 66
l-31 15 7 202 c3 111 13 355 21 542 8 187 14 346 14 353 0 8 8 11 23 7 12 -2
64 -11 116 -20z m1031 3 c0 -13 3 -68 6 -123 l6 -100 -128 -28 c-71 -15 -132
-31 -137 -36 -10 -10 -42 -189 -35 -196 3 -3 56 5 119 19 63 13 115 23 115 22
1 0 3 -35 5 -76 l4 -74 -125 -36 -125 -35 -9 -68 c-5 -37 -6 -70 -3 -73 3 -3
62 6 132 21 69 16 127 26 129 24 1 -2 1 -59 -2 -125 l-4 -121 -232 -63 c-127
-34 -235 -64 -241 -66 -7 -3 -9 10 -8 33 2 21 17 249 33 507 17 258 32 471 35
474 6 6 435 140 453 141 6 1 12 -9 12 -21z m702 -87 c-20 -32 -42 -67 -48 -77
-8 -14 -10 -3 -6 46 2 36 6 67 8 69 3 3 57 17 76 20 4 1 -9 -25 -30 -58z
m-714 -278 c-3 -65 -7 -138 -8 -163 -2 -40 -3 -38 -11 23 -4 38 -10 72 -13 75
-6 5 -144 -18 -205 -35 -23 -6 -24 -5 -16 43 4 27 8 51 10 52 2 2 43 13 92 23
128 29 123 26 123 65 0 26 4 34 18 34 16 0 16 -10 10 -117z m575 -34 c-12 -45
-23 -93 -24 -108 -1 -14 -4 -37 -8 -51 -6 -21 -10 -17 -30 39 -23 62 -23 63
-3 84 10 12 33 43 51 70 18 26 33 47 35 47 2 0 -8 -37 -21 -81z m910 -79 c42
-23 77 -43 77 -43 0 -1 -52 -3 -116 -5 l-115 -3 6 53 c10 81 11 82 42 60 16
-11 63 -38 106 -62z m-1497 -152 c-3 -13 -6 -41 -6 -64 l0 -41 -127 -27 c-71
-14 -131 -26 -134 -26 -3 0 -4 10 -2 23 4 19 18 26 91 46 116 32 120 34 114
70 -4 30 5 37 52 40 14 1 17 -4 12 -21z m372 -411 c-17 -33 -21 -152 -9 -301
7 -81 15 -155 18 -164 4 -11 3 -13 -4 -7 -5 6 -31 60 -57 120 -63 143 -110
227 -153 272 -28 31 -31 38 -18 45 8 5 15 20 15 33 0 17 9 29 28 39 26 14 30
22 41 103 20 141 17 141 86 3 48 -96 61 -129 53 -143z m-1598 189 c0 -29 -3
-31 -50 -41 l-35 -7 34 36 c41 42 51 45 51 12z m1860 -52 c0 -7 -4 -16 -10
-19 -28 -17 -6 -128 56 -280 4 -11 -17 7 -47 41 -53 60 -129 129 -164 150 -16
9 -10 15 49 49 53 32 66 44 62 59 -3 12 2 25 12 32 14 11 19 10 30 -3 6 -9 12
-22 12 -29z m-1530 -99 c0 -57 -4 -95 -10 -95 -6 0 -10 38 -10 95 0 57 4 95
10 95 6 0 10 -38 10 -95z m905 -129 c47 19 48 19 25 -25 -17 -34 -38 -103 -66
-216 -5 -25 -9 -13 -21 65 -14 97 -43 180 -62 180 -21 0 -11 19 12 22 17 2 23
11 27 37 3 22 12 37 25 41 18 7 20 2 23 -56 l3 -63 34 15z m1068 53 c27 -34
44 -60 40 -58 -27 12 -162 95 -163 101 0 6 27 14 60 16 8 1 37 -26 63 -59z
m-1290 -81 c-39 -41 -104 -142 -183 -284 -33 -60 -60 -104 -60 -99 0 6 5 39
11 75 6 36 14 112 18 169 l6 104 115 33 c63 18 117 33 119 33 3 1 -9 -14 -26
-31z m-443 -65 c-45 -43 -87 -79 -91 -81 -8 -3 25 75 44 106 5 6 19 12 32 12
13 0 32 8 42 19 18 19 45 31 52 25 2 -2 -33 -39 -79 -81z m-450 31 c0 -8 -32
-33 -43 -34 -4 0 -2 9 5 20 12 19 38 28 38 14z"/>
<path d="M3359 2109 c-41 -24 -93 -103 -115 -176 -34 -108 17 -253 88 -253 39
0 119 76 146 138 58 133 25 312 -57 312 -14 0 -42 -10 -62 -21z m51 -45 c9
-18 14 -59 15 -109 0 -71 -4 -88 -32 -146 -18 -35 -44 -76 -58 -89 l-26 -25
-19 25 c-26 34 -43 112 -37 166 9 86 95 223 131 211 6 -2 18 -17 26 -33z"/>
<path d="M2650 2251 c-16 -11 -33 -219 -19 -235 12 -14 82 21 119 59 21 22 33
46 37 72 4 34 1 45 -23 71 -31 33 -88 50 -114 33z m60 -129 c11 -13 20 -31 20
-38 0 -14 -78 -59 -87 -50 -3 2 -2 32 2 64 6 53 9 59 26 55 11 -3 28 -17 39
-31z"/>
<path d="M2890 3540 c-6 -11 -9 -24 -6 -28 3 -5 -1 -49 -9 -98 -8 -49 -14
-105 -14 -124 1 -19 9 17 18 80 10 63 21 132 25 153 8 41 2 48 -14 17z"/>
</g>
</svg>
